<svg width="100%" height="100%" viewBox="0 0 32 32" fill="none" xmlns="http://www.w3.org/2000/svg">
<path d="M28.6648 14.705C29.0967 15.7367 29.3315 16.8455 29.3315 17.9999C29.3315 20.7448 28.0044 23.2313 25.8558 25.0383C25.5337 25.3092 25.3315 25.7016 25.3315 26.1225V29.3333H22.6648L21.6063 27.8231C21.4421 27.5888 21.147 27.487 20.8698 27.5582C18.5645 28.1509 16.0984 28.1509 13.7931 27.5582C13.516 27.487 13.2208 27.5888 13.0566 27.8231L11.9981 29.3333H9.33146V26.1539C9.33146 25.7154 9.11593 25.305 8.75498 25.0562C7.32192 24.0681 2.66479 22.1351 2.66479 20.0776V17.9999C2.66479 17.211 3.26175 16.5714 3.99813 16.5714C4.807 16.5714 5.4673 16.2571 5.73419 15.4214C6.75695 12.2188 9.63926 9.64799 13.3589 8.56091" stroke="currentColor" stroke-width="1.5" stroke-linecap="round" stroke-linejoin="round"/>
<path d="M18.8314 12.6666L18.8314 4.66663M21.3314 4.66663V2.66663M21.3314 14.6666V12.6666M18.8314 8.66663H23.8314M23.8314 8.66663C24.6598 8.66663 25.3314 9.3382 25.3314 10.1666V11.1666C25.3314 11.9951 24.6598 12.6666 23.8314 12.6666H17.3314M23.8314 8.66663C24.6598 8.66663 25.3314 7.99505 25.3314 7.16663V6.16663C25.3314 5.3382 24.6598 4.66663 23.8314 4.66663H17.3314" stroke="currentColor" stroke-width="1.5" stroke-linecap="round" stroke-linejoin="round"/>
<path d="M9.99791 16H10.0099" stroke="currentColor" stroke-width="2" stroke-linecap="round" stroke-linejoin="round"/>
</svg>
