<svg width="100%" height="100%" viewBox="0 0 32 32" fill="none" xmlns="http://www.w3.org/2000/svg">
<path d="M8.76827 20.6421C6.88191 21.7653 1.93599 24.0588 4.94838 26.9287C6.41991 28.3307 8.05882 29.3333 10.1193 29.3333H21.877C23.9375 29.3333 25.5764 28.3307 27.048 26.9287C30.0603 24.0588 25.1144 21.7653 23.2281 20.6421C18.8046 18.0081 13.1918 18.0081 8.76827 20.6421Z" stroke="currentColor" stroke-width="1.5" stroke-linecap="round" stroke-linejoin="round"/>
<path d="M21.9982 8.66663C21.9982 11.9803 19.3119 14.6666 15.9982 14.6666C12.6845 14.6666 9.99817 11.9803 9.99817 8.66663C9.99817 5.35292 12.6845 2.66663 15.9982 2.66663C19.3119 2.66663 21.9982 5.35292 21.9982 8.66663Z" stroke="currentColor" stroke-width="1.5"/>
</svg>
