<svg xmlns="http://www.w3.org/2000/svg"  viewBox="0 0 20 21" fill="none">
  <path d="M16.0584 5.38153C14.9501 4.86486 13.7501 4.48986 12.5001 4.27319C12.4781 4.27351 12.4571 4.28249 12.4417 4.29819C12.2917 4.57319 12.1167 4.93153 12.0001 5.20653C10.6742 5.00665 9.3259 5.00665 8.00006 5.20653C7.88339 4.92319 7.70839 4.57319 7.55006 4.29819C7.54172 4.28153 7.51672 4.27319 7.49172 4.27319C6.24172 4.48986 5.05006 4.86486 3.93339 5.38153C3.92506 5.38153 3.91672 5.38986 3.90839 5.39819C1.64172 8.78986 1.01672 12.0899 1.32506 15.3565C1.32506 15.3732 1.33339 15.3899 1.35006 15.3982C2.85006 16.4982 4.29172 17.1649 5.71672 17.6065C5.74172 17.6149 5.76672 17.6065 5.77506 17.5899C6.10839 17.1315 6.40839 16.6482 6.66672 16.1399C6.68339 16.1065 6.66672 16.0732 6.63339 16.0649C6.15839 15.8815 5.70839 15.6649 5.26672 15.4149C5.23339 15.3982 5.23339 15.3482 5.25839 15.3232C5.35006 15.2565 5.44172 15.1815 5.53339 15.1149C5.55006 15.0982 5.57506 15.0982 5.59172 15.1065C8.45839 16.4149 11.5501 16.4149 14.3834 15.1065C14.4001 15.0982 14.4251 15.0982 14.4417 15.1149C14.5334 15.1899 14.6251 15.2565 14.7167 15.3315C14.7501 15.3565 14.7501 15.4065 14.7084 15.4232C14.2751 15.6815 13.8167 15.8899 13.3417 16.0732C13.3084 16.0815 13.3001 16.1232 13.3084 16.1482C13.5751 16.6565 13.8751 17.1399 14.2001 17.5982C14.2251 17.6065 14.2501 17.6149 14.2751 17.6065C15.7084 17.1649 17.1501 16.4982 18.6501 15.3982C18.6667 15.3899 18.6751 15.3732 18.6751 15.3565C19.0417 11.5815 18.0667 8.30653 16.0917 5.39819C16.0834 5.38986 16.0751 5.38153 16.0584 5.38153ZM7.10006 13.3649C6.24172 13.3649 5.52506 12.5732 5.52506 11.5982C5.52506 10.6232 6.22506 9.83153 7.10006 9.83153C7.98339 9.83153 8.68339 10.6315 8.67506 11.5982C8.67506 12.5732 7.97506 13.3649 7.10006 13.3649ZM12.9084 13.3649C12.0501 13.3649 11.3334 12.5732 11.3334 11.5982C11.3334 10.6232 12.0334 9.83153 12.9084 9.83153C13.7917 9.83153 14.4917 10.6315 14.4834 11.5982C14.4834 12.5732 13.7917 13.3649 12.9084 13.3649Z" fill="white"/>
</svg>