<svg width="110" height="20" viewBox="0 0 110 20" fill="none" xmlns="http://www.w3.org/2000/svg">
<path d="M10 0C4.49393 0 0 4.49393 0 10C0 15.5061 4.49393 20 10 20C15.5061 20 20 15.5061 20 10C20 4.49393 15.5061 0 10 0ZM2.79352 10C2.79352 7.93523 3.68421 6.03239 5.10121 4.73685C5.66802 4.21053 6.63968 4.37247 7.04454 5.06073L9.55466 9.39272C9.79757 9.79758 9.79757 10.2834 9.55466 10.6883L7.04454 15.0202C6.63968 15.749 5.66802 15.8704 5.06073 15.3036C3.68421 13.9271 2.79352 12.0648 2.79352 10ZM12.9555 14.9393L10.4453 10.6073C10.2024 10.2024 10.2024 9.7166 10.4453 9.31174L12.9555 4.97975C13.3603 4.29149 14.2915 4.12956 14.8988 4.65587C16.3158 5.95142 17.2065 7.85425 17.2065 9.91903C17.2065 11.9838 16.3158 13.8866 14.8988 15.1822C14.2915 15.83 13.3603 15.668 12.9555 14.9393Z" fill="white"/>
<path d="M32.016 15.16C28.688 15.16 26.48 12.984 26.48 9.64C26.48 6.296 28.688 4.12 32.016 4.12C35.04 4.12 37.152 5.72 37.152 8.28V8.504H35.248V8.28C35.248 6.648 34.208 5.768 32.032 5.768C29.52 5.768 28.304 6.968 28.304 9.64C28.304 12.312 29.52 13.496 32.032 13.496C34.208 13.496 35.248 12.632 35.248 10.984V10.776H37.152V10.984C37.152 13.56 35.056 15.16 32.016 15.16ZM40.153 15H38.425V7.048H40.009V9.192H40.121C40.361 7.912 41.225 6.888 42.857 6.888C44.665 6.888 45.449 8.184 45.449 9.688V10.728H43.737V10.024C43.737 8.888 43.257 8.36 42.073 8.36C40.713 8.36 40.153 9.112 40.153 10.536V15ZM50.5984 15.16C47.9584 15.16 46.1824 13.48 46.1824 11.032C46.1824 8.552 47.9584 6.888 50.5984 6.888C53.2544 6.888 55.0304 8.552 55.0304 11.032C55.0304 13.48 53.2544 15.16 50.5984 15.16ZM50.5984 13.624C52.5344 13.624 53.3344 12.712 53.3344 11.032C53.3344 9.336 52.5344 8.408 50.5984 8.408C48.6784 8.408 47.8784 9.336 47.8784 11.032C47.8784 12.712 48.6784 13.624 50.5984 13.624ZM60.0444 15.16C57.4844 15.16 56.0284 14.152 56.0284 12.312V12.264H57.7564V12.392C57.7564 13.432 58.3804 13.768 60.0444 13.768C61.5964 13.768 62.0604 13.448 62.0604 12.744C62.0604 12.088 61.6764 11.88 60.5404 11.72L58.3644 11.432C56.8604 11.24 55.9484 10.6 55.9484 9.272C55.9484 7.88 57.2124 6.888 59.6604 6.888C62.0924 6.888 63.5644 7.864 63.5644 9.752V9.8H61.8524V9.704C61.8524 8.76 61.3724 8.264 59.6124 8.264C58.1564 8.264 57.6444 8.584 57.6444 9.336C57.6444 9.96 57.9644 10.184 59.1644 10.344L61.0044 10.6C62.8924 10.84 63.7564 11.48 63.7564 12.792C63.7564 14.28 62.2844 15.16 60.0444 15.16ZM68.7631 15.16C66.2031 15.16 64.7471 14.152 64.7471 12.312V12.264H66.4751V12.392C66.4751 13.432 67.0991 13.768 68.7631 13.768C70.3151 13.768 70.7791 13.448 70.7791 12.744C70.7791 12.088 70.3951 11.88 69.2591 11.72L67.0831 11.432C65.5791 11.24 64.6671 10.6 64.6671 9.272C64.6671 7.88 65.9311 6.888 68.3791 6.888C70.8111 6.888 72.2831 7.864 72.2831 9.752V9.8H70.5711V9.704C70.5711 8.76 70.0911 8.264 68.3311 8.264C66.8751 8.264 66.3631 8.584 66.3631 9.336C66.3631 9.96 66.6831 10.184 67.8831 10.344L69.7231 10.6C71.6111 10.84 72.4751 11.48 72.4751 12.792C72.4751 14.28 71.0031 15.16 68.7631 15.16ZM78.6499 15.16C75.4979 15.16 73.4019 12.984 73.4019 9.64C73.4019 6.296 75.6579 4.12 79.0819 4.12C82.1219 4.12 84.2339 5.656 84.2339 8.136V8.264H82.3299V8.136C82.3299 6.6 81.2579 5.768 79.0339 5.768C76.4579 5.768 75.2259 6.968 75.2259 9.64C75.2259 12.312 76.4419 13.496 78.9539 13.496C81.5139 13.496 82.5219 12.792 82.5219 10.984V10.84H78.5539V9.528H84.2339V15H82.6659V12.68H82.5539C82.1059 14.248 80.7459 15.16 78.6499 15.16ZM88.0266 15.16C86.3786 15.16 85.3386 14.392 85.3386 13.08C85.3386 11.848 86.3306 11.208 87.8986 11.032L91.5146 10.648V10.184C91.5146 8.872 90.9386 8.408 89.4186 8.408C87.9466 8.408 87.2266 8.888 87.2266 10.056V10.12H85.5146V10.056C85.5146 8.248 87.0186 6.888 89.5466 6.888C92.0746 6.888 93.2106 8.264 93.2106 10.168V15H91.6266V13.016H91.5146C91.0986 14.36 89.8346 15.16 88.0266 15.16ZM87.0666 12.968C87.0666 13.608 87.4986 13.912 88.4906 13.912C90.2986 13.912 91.5146 13.24 91.5146 11.672L88.3946 12.024C87.4986 12.136 87.0666 12.344 87.0666 12.968ZM99.9691 15H98.1451C96.4331 15 95.3771 14.248 95.3771 12.312V8.488H94.0331V7.048H95.3771V5.304H97.0891V7.048H99.9691V8.488H97.0891V12.216C97.0891 13.192 97.5371 13.448 98.5291 13.448H99.9691V15ZM105.05 15.16C102.442 15.16 100.73 13.688 100.73 11.032C100.73 8.552 102.426 6.888 105.018 6.888C107.482 6.888 109.162 8.248 109.162 10.664C109.162 10.952 109.146 11.176 109.098 11.416H102.346C102.41 12.952 103.162 13.768 105.002 13.768C106.666 13.768 107.354 13.224 107.354 12.28V12.152H109.082V12.296C109.082 13.992 107.418 15.16 105.05 15.16ZM104.986 8.248C103.226 8.248 102.458 9.032 102.362 10.456H107.53V10.424C107.53 8.952 106.682 8.248 104.986 8.248Z" fill="white"/>
</svg>
