<svg width="16" height="16" viewBox="0 0 16 16" fill="none" xmlns="http://www.w3.org/2000/svg">
<path d="M8 0C3.59514 0 0 3.59515 0 8C0 12.4049 3.59514 16 8 16C12.4049 16 16 12.4049 16 8C16 3.59515 12.4049 0 8 0ZM2.23482 8C2.23482 6.34818 2.94737 4.82591 4.08097 3.78948C4.53441 3.36842 5.31174 3.49798 5.63563 4.04858L7.64372 7.51417C7.83806 7.83806 7.83806 8.22672 7.64372 8.55061L5.63563 12.0162C5.31174 12.5992 4.53441 12.6964 4.04858 12.2429C2.94737 11.1417 2.23482 9.65183 2.23482 8ZM10.3644 11.9514L8.35627 8.48583C8.16194 8.16195 8.16194 7.77328 8.35627 7.44939L10.3644 3.9838C10.6883 3.43319 11.4332 3.30364 11.919 3.7247C13.0526 4.76113 13.7652 6.2834 13.7652 7.93522C13.7652 9.58704 13.0526 11.1093 11.919 12.1457C11.4332 12.664 10.6883 12.5344 10.3644 11.9514Z" fill="white"/>
</svg>
