<svg xmlns="http://www.w3.org/2000/svg" width="100%" height="100%" viewBox="0 0 24 24" fill="none">
  <path d="M9.00073 4.5C9.33559 4.5 9.62988 4.72198 9.72188 5.04396L10.5351 7.89015C10.891 9.13593 11.8648 10.1097 13.1106 10.4657L15.9568 11.2789C16.2787 11.3709 16.5007 11.6651 16.5007 12C16.5007 12.3349 16.2787 12.6291 15.9568 12.7211L13.1106 13.5343C11.8648 13.8903 10.891 14.8641 10.5351 16.1099L9.72188 18.956C9.62988 19.278 9.33559 19.5 9.00073 19.5C8.66587 19.5 8.37158 19.278 8.27959 18.956L7.46639 16.1099C7.11046 14.8641 6.13666 13.8903 4.89088 13.5343L2.04469 12.7211C1.72272 12.6291 1.50073 12.3349 1.50073 12C1.50073 11.6651 1.72272 11.3709 2.04469 11.2789L4.89088 10.4657C6.13666 10.1097 7.11046 9.13593 7.46639 7.89015L8.27959 5.04396C8.37158 4.72198 8.66587 4.5 9.00073 4.5Z" fill="currentColor" />
  <path d="M18.0007 1.5C18.3449 1.5 18.6449 1.73422 18.7283 2.0681L18.9872 3.10356C19.2223 4.04406 19.9567 4.7784 20.8972 5.01353L21.9326 5.27239C22.2665 5.35586 22.5007 5.65585 22.5007 6C22.5007 6.34415 22.2665 6.64414 21.9326 6.72761L20.8972 6.98647C19.9567 7.2216 19.2223 7.95594 18.9872 8.89644L18.7283 9.9319C18.6449 10.2658 18.3449 10.5 18.0007 10.5C17.6566 10.5 17.3566 10.2658 17.2731 9.9319L17.0143 8.89644C16.7791 7.95594 16.0448 7.2216 15.1043 6.98647L14.0688 6.72761C13.735 6.64414 13.5007 6.34415 13.5007 6C13.5007 5.65585 13.735 5.35586 14.0688 5.27239L15.1043 5.01353C16.0448 4.7784 16.7791 4.04406 17.0143 3.10356L17.2731 2.0681C17.3566 1.73422 17.6566 1.5 18.0007 1.5Z" fill="currentColor" />
  <path d="M16.5007 15C16.8236 15 17.1102 15.2066 17.2122 15.5128L17.6065 16.6956C17.7558 17.1435 18.1073 17.4949 18.5552 17.6442L19.7379 18.0385C20.0442 18.1406 20.2507 18.4272 20.2507 18.75C20.2507 19.0728 20.0442 19.3594 19.7379 19.4615L18.5552 19.8558C18.1073 20.0051 17.7558 20.3565 17.6065 20.8044L17.2122 21.9872C17.1102 22.2934 16.8236 22.5 16.5007 22.5C16.1779 22.5 15.8913 22.2934 15.7892 21.9872L15.395 20.8044C15.2457 20.3565 14.8942 20.0051 14.4463 19.8558L13.2636 19.4615C12.9573 19.3594 12.7507 19.0728 12.7507 18.75C12.7507 18.4272 12.9573 18.1406 13.2636 18.0385L14.4463 17.6442C14.8942 17.4949 15.2457 17.1435 15.395 16.6956L15.7892 15.5128C15.8913 15.2066 16.1779 15 16.5007 15Z" fill="currentColor" />
</svg>