<svg width="100%" height="100%" viewBox="0 0 24 24" fill="none" xmlns="http://www.w3.org/2000/svg">
<path d="M11.998 21C12.2773 21 12.5368 20.8728 13.0559 20.6184L17.2285 18.5737C19.0749 17.6688 19.998 17.2164 19.998 16.5V7.5M11.998 21C11.7188 21 11.4593 20.8728 10.9402 20.6184L6.76761 18.5737C4.92123 17.6688 3.99805 17.2164 3.99805 16.5V7.5M11.998 21V12" stroke="currentColor" stroke-width="1.5" stroke-linecap="round" stroke-linejoin="round"/>
<path d="M10.9402 3.38159C11.4593 3.1272 11.7188 3 11.998 3C12.2773 3 12.5368 3.1272 13.0559 3.38159L17.2285 5.42635C19.0749 6.33116 19.998 6.78357 19.998 7.5C19.998 8.21643 19.0749 8.66884 17.2285 9.57365L13.0559 11.6184C12.5368 11.8728 12.2773 12 11.998 12C11.7188 12 11.4593 11.8728 10.9402 11.6184L6.76761 9.57365C4.92123 8.66884 3.99805 8.21643 3.99805 7.5C3.99805 6.78357 4.92123 6.33116 6.76761 5.42635L10.9402 3.38159Z" stroke="currentColor" stroke-width="1.5" stroke-linejoin="round"/>
</svg>
