<svg width="100%" height="100%" viewBox="0 0 114 120" fill="none" xmlns="http://www.w3.org/2000/svg">
<path d="M56.9903 1.66663C39.4449 1.66663 28.0685 13.4441 14.6141 17.7369C9.14345 19.4824 6.4081 20.3551 5.30111 21.5854C4.19412 22.8157 3.86997 24.6135 3.22165 28.2091C-3.71586 66.6849 11.4477 102.256 47.6108 116.102C51.4963 117.59 53.4391 118.333 57.0094 118.333C60.5797 118.333 62.5224 117.589 66.4077 116.102C102.568 102.256 117.718 66.6848 110.778 28.209C110.129 24.6129 109.805 22.8148 108.698 21.5845C107.591 20.3542 104.856 19.4819 99.3853 17.7374C85.9256 13.445 74.5363 1.66663 56.9903 1.66663Z" stroke="currentColor" stroke-width="2.5" stroke-linecap="round" />
<path d="M42.8859 82.5007L42.3788 83.6432H42.3788L42.8859 82.5007ZM37.3612 76.5814L36.1953 77.0321H36.1953L37.3612 76.5814ZM76.6404 76.5814L77.8063 77.0321L76.6404 76.5814ZM71.1157 82.5007L71.6227 83.6432L71.1157 82.5007ZM71.1157 51.3533L71.6227 50.2108L71.1157 51.3533ZM76.6404 57.2727L77.8063 56.8219V56.8219L76.6404 57.2727ZM42.8859 51.3533L42.3788 50.2108L42.8859 51.3533ZM37.3612 57.2727L36.1953 56.8219H36.1953L37.3612 57.2727ZM45.5424 50.5208C45.5424 51.2111 46.1021 51.7708 46.7924 51.7708C47.4828 51.7708 48.0424 51.2111 48.0424 50.5208H45.5424ZM65.9591 50.5208C65.9591 51.2111 66.5187 51.7708 67.2091 51.7708C67.8995 51.7708 68.4591 51.2111 68.4591 50.5208H65.9591ZM51.8966 51.7708H62.1049V49.2708H51.8966V51.7708ZM62.1049 82.0833H51.8966V84.5833H62.1049V82.0833ZM51.8966 82.0833C49.5 82.0833 47.7697 82.0825 46.4022 81.9825C45.0477 81.8835 44.1451 81.6919 43.3929 81.3582L42.3788 83.6432C43.5027 84.142 44.7271 84.3667 46.2199 84.4759C47.6997 84.584 49.5367 84.5833 51.8966 84.5833V82.0833ZM35.3341 66.927C35.3341 69.4592 35.3335 71.4167 35.4338 72.991C35.5346 74.5749 35.7412 75.8577 36.1953 77.0321L38.5271 76.1306C38.204 75.295 38.0221 74.2988 37.9287 72.8321C37.8347 71.3557 37.8341 69.4911 37.8341 66.927H35.3341ZM43.3929 81.3582C41.2106 80.3896 39.4504 78.519 38.5271 76.1306L36.1953 77.0321C37.3441 80.0037 39.5585 82.3916 42.3788 83.6432L43.3929 81.3582ZM76.1674 66.927C76.1674 69.4911 76.1668 71.3557 76.0728 72.8321C75.9794 74.2988 75.7975 75.295 75.4745 76.1306L77.8063 77.0321C78.2603 75.8577 78.4669 74.5749 78.5678 72.991C78.668 71.4167 78.6674 69.4592 78.6674 66.927H76.1674ZM62.1049 84.5833C64.4649 84.5833 66.3019 84.584 67.7816 84.4759C69.2744 84.3667 70.4988 84.142 71.6227 83.6432L70.6086 81.3582C69.8565 81.6919 68.9538 81.8835 67.5993 81.9825C66.2319 82.0825 64.5015 82.0833 62.1049 82.0833V84.5833ZM75.4745 76.1306C74.5511 78.519 72.791 80.3896 70.6086 81.3582L71.6227 83.6432C74.443 82.3916 76.6575 80.0037 77.8063 77.0321L75.4745 76.1306ZM62.1049 51.7708C64.5015 51.7708 66.2319 51.7715 67.5993 51.8715C68.9538 51.9705 69.8565 52.1621 70.6086 52.4959L71.6227 50.2108C70.4988 49.712 69.2744 49.4873 67.7816 49.3782C66.3019 49.27 64.4649 49.2708 62.1049 49.2708V51.7708ZM78.6674 66.927C78.6674 64.3949 78.668 62.4373 78.5678 60.8631C78.4669 59.2791 78.2603 57.9963 77.8063 56.8219L75.4745 57.7234C75.7975 58.559 75.9794 59.5552 76.0728 61.0219C76.1668 62.4983 76.1674 64.3629 76.1674 66.927H78.6674ZM70.6086 52.4959C72.791 53.4644 74.5511 55.335 75.4745 57.7234L77.8063 56.8219C76.6575 53.8503 74.443 51.4624 71.6227 50.2108L70.6086 52.4959ZM51.8966 49.2708C49.5367 49.2708 47.6997 49.27 46.2199 49.3782C44.7271 49.4873 43.5027 49.712 42.3788 50.2108L43.3929 52.4959C44.1451 52.1621 45.0477 51.9705 46.4022 51.8715C47.7697 51.7715 49.5 51.7708 51.8966 51.7708V49.2708ZM37.8341 66.927C37.8341 64.3629 37.8347 62.4983 37.9287 61.0219C38.0221 59.5552 38.204 58.559 38.5271 57.7234L36.1953 56.8219C35.7412 57.9963 35.5346 59.2791 35.4338 60.8631C35.3335 62.4373 35.3341 64.3949 35.3341 66.927H37.8341ZM42.3788 50.2108C39.5585 51.4624 37.3441 53.8503 36.1953 56.8219L38.5271 57.7234C39.4504 55.335 41.2106 53.4644 43.3929 52.4959L42.3788 50.2108ZM48.0424 50.5208V40.677H45.5424V50.5208H48.0424ZM65.9591 40.677V50.5208H68.4591V40.677H65.9591ZM57.0008 32.0833C61.9916 32.0833 65.9591 35.9733 65.9591 40.677H68.4591C68.4591 34.5076 63.2858 29.5833 57.0008 29.5833V32.0833ZM48.0424 40.677C48.0424 35.9733 52.01 32.0833 57.0008 32.0833V29.5833C50.7157 29.5833 45.5424 34.5076 45.5424 40.677H48.0424Z" fill="currentColor"/>

</svg>
