<svg width="178" height="196" viewBox="0 0 178 196" fill="none" xmlns="http://www.w3.org/2000/svg">
<g filter="url(#filter0_ii_1_1594)">
<path d="M73 5.2376C82.9008 -0.478647 95.0992 -0.478645 105 5.2376L161.335 37.7624C171.235 43.4786 177.335 54.0427 177.335 65.4752V130.525C177.335 141.957 171.235 152.521 161.335 158.238L105 190.762C95.0992 196.479 82.9008 196.479 73 190.762L16.6654 158.238C6.76457 152.521 0.665405 141.957 0.665405 130.525V65.4752C0.665405 54.0427 6.76457 43.4786 16.6654 37.7624L73 5.2376Z" fill="#121111"/>
<path d="M73 5.2376C82.9008 -0.478647 95.0992 -0.478645 105 5.2376L161.335 37.7624C171.235 43.4786 177.335 54.0427 177.335 65.4752V130.525C177.335 141.957 171.235 152.521 161.335 158.238L105 190.762C95.0992 196.479 82.9008 196.479 73 190.762L16.6654 158.238C6.76457 152.521 0.665405 141.957 0.665405 130.525V65.4752C0.665405 54.0427 6.76457 43.4786 16.6654 37.7624L73 5.2376Z" fill="url(#paint0_radial_1_1594)" fill-opacity="0.05"/>
</g>
<defs>
<filter id="filter0_ii_1_1594" x="0.665527" y="0.950439" width="176.669" height="198.099" filterUnits="userSpaceOnUse" color-interpolation-filters="sRGB">
<feFlood flood-opacity="0" result="BackgroundImageFix"/>
<feBlend mode="normal" in="SourceGraphic" in2="BackgroundImageFix" result="shape"/>
<feColorMatrix in="SourceAlpha" type="matrix" values="0 0 0 0 0 0 0 0 0 0 0 0 0 0 0 0 0 0 127 0" result="hardAlpha"/>
<feOffset dy="4"/>
<feGaussianBlur stdDeviation="2"/>
<feComposite in2="hardAlpha" operator="arithmetic" k2="-1" k3="1"/>
<feColorMatrix type="matrix" values="0 0 0 0 0.0380208 0 0 0 0 0.0380208 0 0 0 0 0.0380208 0 0 0 0.15 0"/>
<feBlend mode="normal" in2="shape" result="effect1_innerShadow_1_1594"/>
<feColorMatrix in="SourceAlpha" type="matrix" values="0 0 0 0 0 0 0 0 0 0 0 0 0 0 0 0 0 0 127 0" result="hardAlpha"/>
<feOffset dy="-5"/>
<feComposite in2="hardAlpha" operator="arithmetic" k2="-1" k3="1"/>
<feColorMatrix type="matrix" values="0 0 0 0 0 0 0 0 0 0 0 0 0 0 0 0 0 0 0.15 0"/>
<feBlend mode="normal" in2="effect1_innerShadow_1_1594" result="effect2_innerShadow_1_1594"/>
</filter>
<radialGradient id="paint0_radial_1_1594" cx="0" cy="0" r="1" gradientUnits="userSpaceOnUse" gradientTransform="translate(86.5 3.00001) rotate(90) scale(114)">
<stop stop-color="white"/>
<stop offset="1" stop-color="white" stop-opacity="0"/>
</radialGradient>
</defs>
</svg>
