<svg xmlns="http://www.w3.org/2000/svg" width="100%" height="100%" viewBox="0 0 182 202" fill="none">
  <g filter="url(#filter0_b_1_1593)">
    <path d="M75 5.2376C84.9008 -0.478646 97.0992 -0.478647 107 5.2376L165.933 39.2624C175.834 44.9786 181.933 55.5427 181.933 66.9752V135.025C181.933 146.457 175.834 157.021 165.933 162.738L107 196.762C97.0992 202.479 84.9008 202.479 75 196.762L16.0673 162.738C6.16649 157.021 0.0673294 146.457 0.0673294 135.025V66.9752C0.0673294 55.5427 6.1665 44.9786 16.0673 39.2624L75 5.2376Z" fill="white" fill-opacity="0.1"/>
    <path d="M75.125 5.45411C84.9485 -0.217481 97.0515 -0.217482 106.875 5.45411L165.808 39.4789C175.631 45.1505 181.683 55.632 181.683 66.9752V135.025C181.683 146.368 175.631 156.85 165.808 162.521L106.875 196.546C97.0515 202.217 84.9485 202.217 75.125 196.546L16.1923 162.521C6.36884 156.85 0.317329 146.368 0.317329 135.025V66.9752C0.317329 55.632 6.36885 45.1505 16.1923 39.4789L75.125 5.45411Z" stroke="url(#paint0_linear_1_1593)" stroke-opacity="0.2" stroke-width="0.5"/>
  </g>
  <defs>
    <filter id="filter0_b_1_1593" x="-7.93262" y="-7.04956" width="197.865" height="216.099" filterUnits="userSpaceOnUse" color-interpolation-filters="sRGB">
      <feFlood flood-opacity="0" result="BackgroundImageFix"/>
      <feGaussianBlur in="BackgroundImageFix" stdDeviation="4"/>
      <feComposite in2="SourceAlpha" operator="in" result="effect1_backgroundBlur_1_1593"/>
      <feBlend mode="normal" in="SourceGraphic" in2="effect1_backgroundBlur_1_1593" result="shape"/>
    </filter>
    <linearGradient id="paint0_linear_1_1593" x1="91" y1="-4" x2="91" y2="160.5" gradientUnits="userSpaceOnUse">
      <stop stop-color="white"/>
      <stop offset="1" stop-color="white"/>
    </linearGradient>
  </defs>
</svg>