<svg width="100%" height="100%" viewBox="0 0 86 86" fill="none" xmlns="http://www.w3.org/2000/svg">
<g filter="url(#filter0_i_1_1595)">
<path fill-rule="evenodd" clip-rule="evenodd" d="M33.3788 27.1748C43.7009 13.9139 59.8222 5.37577 77.9375 5.375C78.6502 5.37497 79.3339 5.6581 79.8379 6.16211C80.3419 6.66612 80.6251 7.34971 80.6251 8.0625C80.6251 26.1785 72.0869 42.3013 58.8257 52.6243C59.0228 53.8677 59.125 55.1415 59.125 56.4375C59.125 69.7959 48.2959 80.625 34.9375 80.625C33.4532 80.625 32.25 79.4218 32.25 77.9375V63.1328C32.2168 63.1089 32.1842 63.0842 32.152 63.0587C28.7406 60.3537 25.6495 57.2626 22.9445 53.8512C22.9182 53.818 22.8927 53.7842 22.8681 53.75H8.0625C6.57823 53.75 5.375 52.5468 5.375 51.0625C5.375 37.7041 16.2041 26.875 29.5625 26.875C30.8596 26.875 32.1343 26.9773 33.3788 27.1748ZM53.75 24.1875C49.2972 24.1875 45.6875 27.7972 45.6875 32.25C45.6875 36.7028 49.2972 40.3125 53.75 40.3125C58.2028 40.3125 61.8125 36.7028 61.8125 32.25C61.8125 27.7972 58.2028 24.1875 53.75 24.1875Z" fill="currentColor"/>
<path id="rocket-thruster" d="M18.8496 61.7832C20.0393 60.8957 20.2843 59.2118 19.3968 58.0221C18.5093 56.8324 16.8254 56.5874 15.6357 57.4749C11.0442 60.9002 8.0625 66.3833 8.0625 72.5622C8.0625 73.5496 8.1388 74.521 8.2863 75.4704C8.46594 76.6266 9.37309 77.5338 10.5294 77.7134C11.4787 77.8609 12.4501 77.9372 13.4375 77.9372C19.6164 77.9372 25.0995 74.9555 28.5248 70.364C29.4123 69.1743 29.1673 67.4904 27.9776 66.6029C26.7879 65.7154 25.104 65.9604 24.2165 67.1501C21.7621 70.4402 17.8479 72.5622 13.4375 72.5622C13.4375 68.1518 15.5595 64.2376 18.8496 61.7832Z" fill="currentColor"/>
</g>
<defs>
<filter id="filter0_i_1_1595" x="5.375" y="5.375" width="75.25" height="77.25" filterUnits="userSpaceOnUse" color-interpolation-filters="sRGB">
<feFlood flood-opacity="0" result="BackgroundImageFix"/>
<feBlend mode="normal" in="SourceGraphic" in2="BackgroundImageFix" result="shape"/>
<feColorMatrix in="SourceAlpha" type="matrix" values="0 0 0 0 0 0 0 0 0 0 0 0 0 0 0 0 0 0 127 0" result="hardAlpha"/>
<feOffset dy="2"/>
<feGaussianBlur stdDeviation="1.4"/>
<feComposite in2="hardAlpha" operator="arithmetic" k2="-1" k3="1"/>
<feColorMatrix type="matrix" values="0 0 0 0 0 0 0 0 0 0 0 0 0 0 0 0 0 0 0.4 0"/>
<feBlend mode="normal" in2="shape" result="effect1_innerShadow_1_1595"/>
</filter>
</defs>
</svg>
