<svg width="100%" height="100%" viewBox="0 0 12 13" fill="none" xmlns="http://www.w3.org/2000/svg">
<g clip-path="url(#clip0_1_1619)">
<path d="M0.998169 6.77881C0.998169 5.01007 0.998169 4.1257 1.52457 3.53526C1.60876 3.44082 1.70156 3.35349 1.8019 3.27424C2.42924 2.77881 3.36888 2.77881 5.24817 2.77881H6.74817C8.62746 2.77881 9.5671 2.77881 10.1944 3.27424C10.2948 3.35349 10.3876 3.44082 10.4718 3.53526C10.9982 4.1257 10.9982 5.01007 10.9982 6.77881C10.9982 8.54755 10.9982 9.43192 10.4718 10.0224C10.3876 10.1168 10.2948 10.2041 10.1944 10.2834C9.5671 10.7788 8.62746 10.7788 6.74817 10.7788H5.24817C3.36888 10.7788 2.42924 10.7788 1.8019 10.2834C1.70156 10.2041 1.60876 10.1168 1.52457 10.0224C0.998169 9.43192 0.998169 8.54755 0.998169 6.77881Z" stroke="currentColor" stroke-width="0.6" stroke-linecap="round" stroke-linejoin="round"/>
<path d="M7.27366 6.77881C7.27366 7.46916 6.71402 8.02881 6.02366 8.02881C5.33331 8.02881 4.77366 7.46916 4.77366 6.77881C4.77366 6.08845 5.33331 5.52881 6.02366 5.52881C6.71402 5.52881 7.27366 6.08845 7.27366 6.77881Z" stroke="currentColor" stroke-width="0.6"/>
<path d="M2.49817 6.77881L2.99817 6.77881" stroke="currentColor" stroke-width="0.6" stroke-linecap="round"/>
<path d="M8.99817 6.77881L9.49817 6.77881" stroke="currentColor" stroke-width="0.6" stroke-linecap="round"/>
</g>
<defs>
<clipPath id="clip0_1_1619">
<rect width="12" height="12" fill="currentColor" transform="translate(-0.00183105 0.778809)"/>
</clipPath>
</defs>
</svg>
